<svg xmlns="http://www.w3.org/2000/svg" viewBox="0 0 256 256" fill="none">
  <defs>
    <linearGradient id="bg" x1="32" y1="18" x2="224" y2="238" gradientUnits="userSpaceOnUse">
      <stop offset="0" stop-color="#141726"/>
      <stop offset="1" stop-color="#0b0d18"/>
    </linearGradient>
    <linearGradient id="bg-glow" x1="64" y1="48" x2="196" y2="208" gradientUnits="userSpaceOnUse">
      <stop offset="0" stop-color="#ffffff" stop-opacity="0.12"/>
      <stop offset="1" stop-color="#ffffff" stop-opacity="0.04"/>
    </linearGradient>
    <linearGradient id="hat" x1="58" y1="70" x2="210" y2="134" gradientUnits="userSpaceOnUse">
      <stop offset="0" stop-color="#f4d28f"/>
      <stop offset="1" stop-color="#d7a85a"/>
    </linearGradient>
    <linearGradient id="hat-base" x1="92" y1="126" x2="164" y2="150" gradientUnits="userSpaceOnUse">
      <stop offset="0" stop-color="#202538"/>
      <stop offset="1" stop-color="#2a324a"/>
    </linearGradient>
    <linearGradient id="bowl" x1="56" y1="148" x2="200" y2="230" gradientUnits="userSpaceOnUse">
      <stop offset="0" stop-color="#2563eb"/>
      <stop offset="1" stop-color="#5a8bff"/>
    </linearGradient>
    <linearGradient id="bowl-light" x1="84" y1="158" x2="172" y2="212" gradientUnits="userSpaceOnUse">
      <stop offset="0" stop-color="#8bb2ff" stop-opacity="0.7"/>
      <stop offset="1" stop-color="#2563eb" stop-opacity="0.1"/>
    </linearGradient>
    <linearGradient id="spark" x1="108" y1="96" x2="152" y2="120" gradientUnits="userSpaceOnUse">
      <stop offset="0" stop-color="#8ec6ff"/>
      <stop offset="1" stop-color="#d7a85a"/>
    </linearGradient>
    <linearGradient id="steam" x1="120" y1="42" x2="148" y2="84" gradientUnits="userSpaceOnUse">
      <stop offset="0" stop-color="#f4dba4" stop-opacity="0.9"/>
      <stop offset="1" stop-color="#d7a85a" stop-opacity="0.4"/>
    </linearGradient>
  </defs>
  <rect width="256" height="256" rx="56" fill="url(#bg)"/>
  <rect x="34" y="34" width="188" height="188" rx="44" stroke="url(#bg-glow)" stroke-width="3" fill="none"/>
  <path d="M70 132C50 132 38 112 44 92C50 72 74 64 94 70C110 46 146 46 162 70C184 62 210 76 210 100C210 120 196 134 176 134H96C88 134 78 134 70 132Z" fill="url(#hat)"/>
  <rect x="92" y="126" width="72" height="26" rx="12" fill="url(#hat-base)"/>
  <path d="M56 148H200C196 200 166 228 128 228C90 228 60 200 56 148Z" fill="url(#bowl)"/>
  <path d="M72 158H184C180 190 156 210 128 210C100 210 76 190 72 158Z" fill="url(#bowl-light)" opacity="0.8"/>
  <path d="M60 148H196" stroke="#9cb9ff" stroke-width="6" stroke-linecap="round" stroke-opacity="0.6"/>
  <rect x="105" y="96" width="20" height="20" rx="6" transform="rotate(-12 105 96)" fill="url(#spark)"/>
  <rect x="140" y="98" width="18" height="18" rx="6" transform="rotate(14 149 107)" fill="#2563eb" fill-opacity="0.85"/>
  <rect x="121" y="108" width="16" height="16" rx="6" fill="#f6dd9d" fill-opacity="0.9"/>
  <path d="M116 60C124 52 132 52 140 60" stroke="url(#steam)" stroke-width="6" stroke-linecap="round" fill="none"/>
  <path d="M126 46C132 40 140 40 146 46" stroke="url(#steam)" stroke-width="5" stroke-linecap="round" stroke-opacity="0.7" fill="none"/>
</svg>
